<svg width="198" height="48" viewBox="0 0 198 48" fill="none" xmlns="http://www.w3.org/2000/svg">
<g filter="url(#filter0_d)">
<path d="M2 40C2 17.9086 19.9086 0 42 0H192V0C192 22.0914 174.091 40 152 40H2V40Z" fill="url(#paint0_linear)"/>
<path d="M63.4639 16.708H60.415V25H58.3643V16.708H55.3564V15.0469H63.4639V16.708ZM66.4375 18.4102C66.9616 17.7812 67.6201 17.4668 68.4131 17.4668C70.0173 17.4668 70.8307 18.3988 70.8535 20.2627V25H68.8779V20.3174C68.8779 19.8936 68.7868 19.5814 68.6045 19.3809C68.4222 19.1758 68.1191 19.0732 67.6953 19.0732C67.1165 19.0732 66.6973 19.2965 66.4375 19.7432V25H64.4619V14.5H66.4375V18.4102ZM75.748 25.1367C74.6634 25.1367 73.7793 24.804 73.0957 24.1387C72.4167 23.4733 72.0771 22.5869 72.0771 21.4795V21.2881C72.0771 20.5452 72.2207 19.8822 72.5078 19.2988C72.7949 18.7109 73.2005 18.2598 73.7246 17.9453C74.2533 17.6263 74.8548 17.4668 75.5293 17.4668C76.541 17.4668 77.3363 17.7858 77.915 18.4238C78.4984 19.0618 78.79 19.9665 78.79 21.1377V21.9443H74.0801C74.1439 22.4274 74.3353 22.8148 74.6543 23.1064C74.9779 23.3981 75.3857 23.5439 75.8779 23.5439C76.639 23.5439 77.2337 23.2682 77.6621 22.7168L78.6328 23.8037C78.3366 24.223 77.9355 24.5511 77.4297 24.7881C76.9238 25.0205 76.3633 25.1367 75.748 25.1367ZM75.5225 19.0664C75.1305 19.0664 74.8115 19.1986 74.5654 19.4629C74.3239 19.7272 74.1689 20.1055 74.1006 20.5977H76.8486V20.4404C76.8395 20.0029 76.721 19.6657 76.4932 19.4287C76.2653 19.1872 75.9417 19.0664 75.5225 19.0664ZM77.9287 16.4141V16.4961H76.3564L75.3037 15.5049L74.251 16.4961H72.7061V16.3867L74.7295 14.5H75.8779L77.9287 16.4141ZM81.7705 17.6035L81.832 18.4307C82.3561 17.7881 83.0648 17.4668 83.958 17.4668C84.9105 17.4668 85.5645 17.8428 85.9199 18.5947C86.4395 17.8428 87.18 17.4668 88.1416 17.4668C88.9437 17.4668 89.5407 17.7015 89.9326 18.1709C90.3245 18.6357 90.5205 19.3376 90.5205 20.2764V25H88.5381V20.2832C88.5381 19.8639 88.4561 19.5586 88.292 19.3672C88.1279 19.1712 87.8385 19.0732 87.4238 19.0732C86.8314 19.0732 86.4212 19.3558 86.1934 19.9209L86.2002 25H84.2246V20.29C84.2246 19.8617 84.1403 19.5518 83.9717 19.3604C83.8031 19.1689 83.516 19.0732 83.1104 19.0732C82.5498 19.0732 82.1442 19.3057 81.8936 19.7705V25H79.918V17.6035H81.7705ZM95.2236 21.2471C95.2236 20.0941 95.4811 19.1758 95.9961 18.4922C96.5156 17.8086 97.2243 17.4668 98.1221 17.4668C98.8421 17.4668 99.4368 17.7357 99.9062 18.2734V14.5H101.889V25H100.104L100.009 24.2139C99.5166 24.8291 98.8831 25.1367 98.1084 25.1367C97.238 25.1367 96.5384 24.7949 96.0098 24.1113C95.4857 23.4232 95.2236 22.4684 95.2236 21.2471ZM97.1992 21.3906C97.1992 22.0833 97.32 22.6143 97.5615 22.9834C97.8031 23.3525 98.154 23.5371 98.6143 23.5371C99.2249 23.5371 99.6556 23.2796 99.9062 22.7646V19.8457C99.6602 19.3307 99.234 19.0732 98.6279 19.0732C97.6755 19.0732 97.1992 19.8457 97.1992 21.3906ZM105.505 25H103.522V17.6035H105.505V25ZM103.406 15.6895C103.406 15.3932 103.504 15.1494 103.7 14.958C103.901 14.7666 104.172 14.6709 104.514 14.6709C104.851 14.6709 105.12 14.7666 105.32 14.958C105.521 15.1494 105.621 15.3932 105.621 15.6895C105.621 15.9902 105.519 16.2363 105.313 16.4277C105.113 16.6191 104.846 16.7148 104.514 16.7148C104.181 16.7148 103.912 16.6191 103.707 16.4277C103.507 16.2363 103.406 15.9902 103.406 15.6895ZM103.406 26.5312C103.406 26.2578 103.509 26.0322 103.714 25.8545C103.919 25.6768 104.183 25.5879 104.507 25.5879C104.835 25.5879 105.102 25.6768 105.307 25.8545C105.512 26.0322 105.614 26.2578 105.614 26.5312C105.614 26.8001 105.512 27.0257 105.307 27.208C105.106 27.3903 104.84 27.4814 104.507 27.4814C104.174 27.4814 103.908 27.3903 103.707 27.208C103.507 27.0257 103.406 26.8001 103.406 26.5312ZM110.215 23.5439C110.579 23.5439 110.876 23.4437 111.104 23.2432C111.331 23.0426 111.45 22.776 111.459 22.4434H113.312C113.307 22.9447 113.17 23.4049 112.901 23.8242C112.632 24.2389 112.263 24.5625 111.794 24.7949C111.329 25.0228 110.814 25.1367 110.249 25.1367C109.192 25.1367 108.358 24.8018 107.747 24.1318C107.136 23.4574 106.831 22.5277 106.831 21.3428V21.2129C106.831 20.0736 107.134 19.1644 107.74 18.4854C108.346 17.8063 109.178 17.4668 110.235 17.4668C111.16 17.4668 111.901 17.7311 112.457 18.2598C113.018 18.7839 113.302 19.4834 113.312 20.3584H111.459C111.45 19.9756 111.331 19.6657 111.104 19.4287C110.876 19.1872 110.575 19.0664 110.201 19.0664C109.741 19.0664 109.392 19.235 109.155 19.5723C108.923 19.9049 108.807 20.4473 108.807 21.1992V21.4043C108.807 22.1654 108.923 22.7122 109.155 23.0449C109.388 23.3776 109.741 23.5439 110.215 23.5439ZM116.367 18.4102C116.891 17.7812 117.55 17.4668 118.343 17.4668C119.947 17.4668 120.76 18.3988 120.783 20.2627V25H118.808V20.3174C118.808 19.8936 118.716 19.5814 118.534 19.3809C118.352 19.1758 118.049 19.0732 117.625 19.0732C117.046 19.0732 116.627 19.2965 116.367 19.7432V25H114.392V14.5H116.367V18.4102ZM128.528 22.5869L129.902 17.6035H131.967L129.472 25H127.585L125.09 17.6035H127.154L128.528 22.5869ZM137.271 24.248C136.784 24.8405 136.109 25.1367 135.248 25.1367C134.455 25.1367 133.849 24.9089 133.43 24.4531C133.015 23.9974 132.803 23.3298 132.794 22.4502V17.6035H134.77V22.3818C134.77 23.152 135.12 23.5371 135.822 23.5371C136.492 23.5371 136.952 23.3047 137.203 22.8398V17.6035H139.186V25H137.326L137.271 24.248ZM134.202 26.5996C134.202 26.3262 134.305 26.1006 134.51 25.9229C134.715 25.7451 134.979 25.6562 135.303 25.6562C135.631 25.6562 135.897 25.7451 136.103 25.9229C136.308 26.1006 136.41 26.3262 136.41 26.5996C136.41 26.8685 136.308 27.0941 136.103 27.2764C135.902 27.4587 135.635 27.5498 135.303 27.5498C134.97 27.5498 134.703 27.4587 134.503 27.2764C134.302 27.0941 134.202 26.8685 134.202 26.5996Z" fill="white"/>
</g>
<defs>
<filter id="filter0_d" x="0" y="0" width="198" height="48" filterUnits="userSpaceOnUse" color-interpolation-filters="sRGB">
<feFlood flood-opacity="0" result="BackgroundImageFix"/>
<feColorMatrix in="SourceAlpha" type="matrix" values="0 0 0 0 0 0 0 0 0 0 0 0 0 0 0 0 0 0 127 0"/>
<feOffset dx="2" dy="4"/>
<feGaussianBlur stdDeviation="2"/>
<feColorMatrix type="matrix" values="0 0 0 0 0 0 0 0 0 0 0 0 0 0 0 0 0 0 0.25 0"/>
<feBlend mode="normal" in2="BackgroundImageFix" result="effect1_dropShadow"/>
<feBlend mode="normal" in="SourceGraphic" in2="effect1_dropShadow" result="shape"/>
</filter>
<linearGradient id="paint0_linear" x1="2" y1="20" x2="192" y2="20" gradientUnits="userSpaceOnUse">
<stop stop-color="#FF4E50"/>
<stop offset="1" stop-color="#F9D423"/>
</linearGradient>
</defs>
</svg>
