<svg width="516" height="527" viewBox="0 0 516 527" fill="none" xmlns="http://www.w3.org/2000/svg">
<path d="M40.3125 222.328H459.562V502.297H40.3125V222.328Z" fill="#FAEFDE"/>
<path d="M40.3125 370.547H451.5V502.297H40.3125V370.547Z" fill="#EFD8BE"/>
<path d="M459.562 189.391H40.3125L72.5625 139.984H427.312L459.562 189.391Z" fill="#ED7899"/>
<path d="M40.3125 189.391H459.562C468.475 189.391 475.688 196.757 475.688 205.859C475.688 214.962 468.475 222.328 459.562 222.328H40.3125C31.3997 222.328 24.1875 214.962 24.1875 205.859C24.1875 196.757 31.3997 189.391 40.3125 189.391Z" fill="#F9DD8F"/>
<path d="M169.312 74.1094H330.563V238.797H169.312V74.1094Z" fill="#FAEFDE"/>
<path d="M298.313 139.984H266.063V107.047H233.813V139.984H201.562V172.922H233.813V205.859H266.063V172.922H298.313V139.984Z" fill="#ED7899"/>
<path d="M201.562 403.484H298.313V502.297H201.562V403.484Z" fill="#BBDEF9"/>
<path d="M104.812 279.969H88.6875C84.2311 279.969 80.625 283.652 80.625 288.203C80.625 292.755 84.2311 296.438 88.6875 296.438H104.812C109.269 296.438 112.875 292.755 112.875 288.203C112.875 283.652 109.269 279.969 104.812 279.969Z" fill="#8D6C9F"/>
<path d="M153.188 279.969H137.062C132.606 279.969 129 283.652 129 288.203C129 292.755 132.606 296.438 137.062 296.438H153.188C157.644 296.438 161.25 292.755 161.25 288.203C161.25 283.652 157.644 279.969 153.188 279.969Z" fill="#8D6C9F"/>
<path d="M233.812 279.969H217.687C213.231 279.969 209.625 283.652 209.625 288.203C209.625 292.755 213.231 296.438 217.687 296.438H233.812C238.269 296.438 241.875 292.755 241.875 288.203C241.875 283.652 238.269 279.969 233.812 279.969Z" fill="#8D6C9F"/>
<path d="M282.188 279.969H266.062C261.606 279.969 258 283.652 258 288.203C258 292.755 261.606 296.438 266.062 296.438H282.188C286.644 296.438 290.25 292.755 290.25 288.203C290.25 283.652 286.644 279.969 282.188 279.969Z" fill="#8D6C9F"/>
<path d="M104.812 312.906H88.6875C84.2311 312.906 80.625 316.589 80.625 321.141C80.625 325.692 84.2311 329.375 88.6875 329.375H104.812C109.269 329.375 112.875 325.692 112.875 321.141C112.875 316.589 109.269 312.906 104.812 312.906Z" fill="#8D6C9F"/>
<path d="M153.188 312.906H137.062C132.606 312.906 129 316.589 129 321.141C129 325.692 132.606 329.375 137.062 329.375H153.188C157.644 329.375 161.25 325.692 161.25 321.141C161.25 316.589 157.644 312.906 153.188 312.906Z" fill="#8D6C9F"/>
<path d="M233.812 312.906H217.687C213.231 312.906 209.625 316.589 209.625 321.141C209.625 325.692 213.231 329.375 217.687 329.375H233.812C238.269 329.375 241.875 325.692 241.875 321.141C241.875 316.589 238.269 312.906 233.812 312.906Z" fill="#8D6C9F"/>
<path d="M282.188 312.906H266.062C261.606 312.906 258 316.589 258 321.141C258 325.692 261.606 329.375 266.062 329.375H282.188C286.644 329.375 290.25 325.692 290.25 321.141C290.25 316.589 286.644 312.906 282.188 312.906Z" fill="#8D6C9F"/>
<path d="M104.812 444.656H88.6875C84.2311 444.656 80.625 448.339 80.625 452.891C80.625 457.442 84.2311 461.125 88.6875 461.125H104.812C109.269 461.125 112.875 457.442 112.875 452.891C112.875 448.339 109.269 444.656 104.812 444.656Z" fill="#8D6C9F"/>
<path d="M104.812 411.719H88.6875C84.2311 411.719 80.625 415.402 80.625 419.953C80.625 424.505 84.2311 428.188 88.6875 428.188H104.812C109.269 428.188 112.875 424.505 112.875 419.953C112.875 415.402 109.269 411.719 104.812 411.719Z" fill="#8D6C9F"/>
<path d="M153.188 444.656H137.062C132.606 444.656 129 448.339 129 452.891C129 457.442 132.606 461.125 137.062 461.125H153.188C157.644 461.125 161.25 457.442 161.25 452.891C161.25 448.339 157.644 444.656 153.188 444.656Z" fill="#8D6C9F"/>
<path d="M153.188 411.719H137.062C132.606 411.719 129 415.402 129 419.953C129 424.505 132.606 428.188 137.062 428.188H153.188C157.644 428.188 161.25 424.505 161.25 419.953C161.25 415.402 157.644 411.719 153.188 411.719Z" fill="#8D6C9F"/>
<path d="M362.812 279.969H346.688C342.231 279.969 338.625 283.652 338.625 288.203C338.625 292.755 342.231 296.438 346.688 296.438H362.812C367.269 296.438 370.875 292.755 370.875 288.203C370.875 283.652 367.269 279.969 362.812 279.969Z" fill="#8D6C9F"/>
<path d="M395.062 296.438H411.188C415.644 296.438 419.25 292.755 419.25 288.203C419.25 283.652 415.644 279.969 411.188 279.969H395.062C390.606 279.969 387 283.652 387 288.203C387 292.755 390.606 296.438 395.062 296.438Z" fill="#8D6C9F"/>
<path d="M362.812 312.906H346.688C342.231 312.906 338.625 316.589 338.625 321.141C338.625 325.692 342.231 329.375 346.688 329.375H362.812C367.269 329.375 370.875 325.692 370.875 321.141C370.875 316.589 367.269 312.906 362.812 312.906Z" fill="#8D6C9F"/>
<path d="M395.062 329.375H411.188C415.644 329.375 419.25 325.692 419.25 321.141C419.25 316.589 415.644 312.906 411.188 312.906H395.062C390.606 312.906 387 316.589 387 321.141C387 325.692 390.606 329.375 395.062 329.375Z" fill="#8D6C9F"/>
<path d="M362.812 444.656H346.688C342.231 444.656 338.625 448.339 338.625 452.891C338.625 457.442 342.231 461.125 346.688 461.125H362.812C367.269 461.125 370.875 457.442 370.875 452.891C370.875 448.339 367.269 444.656 362.812 444.656Z" fill="#8D6C9F"/>
<path d="M362.812 411.719H346.688C342.231 411.719 338.625 415.402 338.625 419.953C338.625 424.505 342.231 428.188 346.688 428.188H362.812C367.269 428.188 370.875 424.505 370.875 419.953C370.875 415.402 367.269 411.719 362.812 411.719Z" fill="#8D6C9F"/>
<path d="M411.188 444.656H395.062C390.606 444.656 387 448.339 387 452.891C387 457.442 390.606 461.125 395.062 461.125H411.188C415.644 461.125 419.25 457.442 419.25 452.891C419.25 448.339 415.644 444.656 411.188 444.656Z" fill="#8D6C9F"/>
<path d="M411.188 411.719H395.062C390.606 411.719 387 415.402 387 419.953C387 424.505 390.606 428.188 395.062 428.188H411.188C415.644 428.188 419.25 424.505 419.25 419.953C419.25 415.402 415.644 411.719 411.188 411.719Z" fill="#8D6C9F"/>
<path d="M491.813 494.062H467.625V229.083C477.813 225.303 484.285 215.059 483.482 204.026C482.679 192.993 474.774 183.842 464.161 181.655L436.43 139.084C433.422 134.484 428.368 131.734 422.966 131.75H338.625V90.5781C338.625 76.9399 327.791 65.875 314.438 65.875H185.438C172.084 65.875 161.25 76.9399 161.25 90.5781V131.75H129V115.78C129 111.228 125.394 107.545 120.938 107.545C116.481 107.545 112.875 111.228 112.875 115.78V131.75H96.75V74.6079C96.75 70.0565 93.1439 66.3736 88.6875 66.3736C84.2311 66.3736 80.625 70.0565 80.625 74.6079V131.75H76.9087C71.5389 131.766 66.5156 134.516 63.5394 139.084L35.7144 181.655C25.1008 183.842 17.1958 192.993 16.3927 204.026C15.5896 215.059 22.0616 225.303 32.25 229.083V494.062H8.0625C3.60608 494.062 0 497.745 0 502.297C0 506.848 3.60608 510.531 8.0625 510.531H491.813C496.269 510.531 499.875 506.848 499.875 502.297C499.875 497.745 496.269 494.062 491.813 494.062ZM459.563 214.094H338.625V197.625H459.563C464.019 197.625 467.625 201.308 467.625 205.859C467.625 210.411 464.019 214.094 459.563 214.094ZM422.966 148.219L444.493 181.156H338.625V148.219H422.966ZM177.375 90.5781C177.375 86.0267 180.981 82.3437 185.438 82.3437H314.438C318.894 82.3437 322.5 86.0267 322.5 90.5781V222.328C322.5 226.88 318.894 230.562 314.438 230.562H185.438C180.981 230.562 177.375 226.88 177.375 222.328V90.5781ZM40.3125 214.094C35.8561 214.094 32.25 210.411 32.25 205.859C32.25 201.308 35.8561 197.625 40.3125 197.625H161.25V214.094H40.3125ZM76.9087 148.219H80.625V156.952C80.625 161.487 84.2311 165.186 88.6875 165.186C93.1439 165.186 96.75 161.487 96.75 156.952V148.219H112.875V156.952C112.875 161.487 116.481 165.186 120.938 165.186C125.394 165.186 129 161.487 129 156.952V148.219H161.25V181.156H55.3825L76.9087 148.219ZM290.25 494.062H258V411.719H290.25V494.062ZM241.875 494.062H209.625V411.719H241.875V494.062ZM306.375 494.062V411.719C306.375 402.616 299.163 395.25 290.25 395.25H209.625C200.712 395.25 193.5 402.616 193.5 411.719V494.062H48.375V378.781H370.875C375.331 378.781 378.938 375.098 378.938 370.547C378.938 365.995 375.331 362.312 370.875 362.312H48.375V230.562H162.699C166.116 240.405 175.218 246.999 185.438 247.031H314.438C324.657 246.999 333.759 240.405 337.176 230.562H451.5V494.062H306.375Z" fill="#8D6C9F"/>
<path d="M427.312 362.312H395.062C390.606 362.312 387 365.995 387 370.547C387 375.098 390.606 378.781 395.062 378.781H427.312C431.769 378.781 435.375 375.098 435.375 370.547C435.375 365.995 431.769 362.312 427.312 362.312Z" fill="#8D6C9F"/>
<path d="M209.625 181.156H225.75V197.625C225.75 206.728 232.962 214.094 241.875 214.094H258C266.913 214.094 274.125 206.728 274.125 197.625V181.156H290.25C299.163 181.156 306.375 173.79 306.375 164.688V148.219C306.375 139.116 299.163 131.75 290.25 131.75H274.125V115.281C274.125 106.178 266.913 98.8125 258 98.8125H241.875C232.962 98.8125 225.75 106.178 225.75 115.281V131.75H209.625C200.712 131.75 193.5 139.116 193.5 148.219V164.688C193.5 173.79 200.712 181.156 209.625 181.156ZM209.625 148.219H225.75C234.663 148.219 241.875 140.853 241.875 131.75V115.281H258V131.75C258 140.853 265.212 148.219 274.125 148.219H290.25V164.688H274.125C265.212 164.688 258 172.053 258 181.156V197.625H241.875V181.156C241.875 172.053 234.663 164.688 225.75 164.688H209.625V148.219Z" fill="#8D6C9F"/>
</svg>
