<svg width="355" height="325" viewBox="0 0 355 325" fill="none" xmlns="http://www.w3.org/2000/svg">
<path d="M27.7344 137.109H316.172V309.766H27.7344V137.109Z" fill="#FAEFDE"/>
<path d="M27.7344 228.516H310.625V309.766H27.7344V228.516Z" fill="#EFD8BE"/>
<path d="M316.172 116.797H27.7344L49.9219 86.3281H293.984L316.172 116.797Z" fill="#ED7899"/>
<path d="M27.7344 116.797H316.172C322.304 116.797 327.266 121.339 327.266 126.953C327.266 132.567 322.304 137.109 316.172 137.109H27.7344C21.6025 137.109 16.6406 132.567 16.6406 126.953C16.6406 121.339 21.6025 116.797 27.7344 116.797Z" fill="#F9DD8F"/>
<path d="M116.484 45.7031H227.422V147.266H116.484V45.7031Z" fill="#FAEFDE"/>
<path d="M205.234 86.3281H183.047V66.0156H160.859V86.3281H138.672V106.641H160.859V126.953H183.047V106.641H205.234V86.3281Z" fill="#ED7899"/>
<path d="M138.672 248.828H205.234V309.766H138.672V248.828Z" fill="#BBDEF9"/>
<path d="M72.1094 172.656H61.0156C57.9497 172.656 55.4688 174.928 55.4688 177.734C55.4688 180.541 57.9497 182.812 61.0156 182.812H72.1094C75.1753 182.812 77.6562 180.541 77.6562 177.734C77.6562 174.928 75.1753 172.656 72.1094 172.656Z" fill="#8D6C9F"/>
<path d="M105.391 172.656H94.2969C91.2309 172.656 88.75 174.928 88.75 177.734C88.75 180.541 91.2309 182.812 94.2969 182.812H105.391C108.457 182.812 110.938 180.541 110.938 177.734C110.938 174.928 108.457 172.656 105.391 172.656Z" fill="#8D6C9F"/>
<path d="M160.859 172.656H149.766C146.7 172.656 144.219 174.928 144.219 177.734C144.219 180.541 146.7 182.812 149.766 182.812H160.859C163.925 182.812 166.406 180.541 166.406 177.734C166.406 174.928 163.925 172.656 160.859 172.656Z" fill="#8D6C9F"/>
<path d="M194.141 172.656H183.047C179.981 172.656 177.5 174.928 177.5 177.734C177.5 180.541 179.981 182.812 183.047 182.812H194.141C197.207 182.812 199.688 180.541 199.688 177.734C199.688 174.928 197.207 172.656 194.141 172.656Z" fill="#8D6C9F"/>
<path d="M72.1094 192.969H61.0156C57.9497 192.969 55.4688 195.24 55.4688 198.047C55.4688 200.854 57.9497 203.125 61.0156 203.125H72.1094C75.1753 203.125 77.6562 200.854 77.6562 198.047C77.6562 195.24 75.1753 192.969 72.1094 192.969Z" fill="#8D6C9F"/>
<path d="M105.391 192.969H94.2969C91.2309 192.969 88.75 195.24 88.75 198.047C88.75 200.854 91.2309 203.125 94.2969 203.125H105.391C108.457 203.125 110.938 200.854 110.938 198.047C110.938 195.24 108.457 192.969 105.391 192.969Z" fill="#8D6C9F"/>
<path d="M160.859 192.969H149.766C146.7 192.969 144.219 195.24 144.219 198.047C144.219 200.854 146.7 203.125 149.766 203.125H160.859C163.925 203.125 166.406 200.854 166.406 198.047C166.406 195.24 163.925 192.969 160.859 192.969Z" fill="#8D6C9F"/>
<path d="M194.141 192.969H183.047C179.981 192.969 177.5 195.24 177.5 198.047C177.5 200.854 179.981 203.125 183.047 203.125H194.141C197.207 203.125 199.688 200.854 199.688 198.047C199.688 195.24 197.207 192.969 194.141 192.969Z" fill="#8D6C9F"/>
<path d="M72.1094 274.219H61.0156C57.9497 274.219 55.4688 276.49 55.4688 279.297C55.4688 282.104 57.9497 284.375 61.0156 284.375H72.1094C75.1753 284.375 77.6562 282.104 77.6562 279.297C77.6562 276.49 75.1753 274.219 72.1094 274.219Z" fill="#8D6C9F"/>
<path d="M72.1094 253.906H61.0156C57.9497 253.906 55.4688 256.178 55.4688 258.984C55.4688 261.791 57.9497 264.062 61.0156 264.062H72.1094C75.1753 264.062 77.6562 261.791 77.6562 258.984C77.6562 256.178 75.1753 253.906 72.1094 253.906Z" fill="#8D6C9F"/>
<path d="M105.391 274.219H94.2969C91.2309 274.219 88.75 276.49 88.75 279.297C88.75 282.104 91.2309 284.375 94.2969 284.375H105.391C108.457 284.375 110.938 282.104 110.938 279.297C110.938 276.49 108.457 274.219 105.391 274.219Z" fill="#8D6C9F"/>
<path d="M105.391 253.906H94.2969C91.2309 253.906 88.75 256.178 88.75 258.984C88.75 261.791 91.2309 264.062 94.2969 264.062H105.391C108.457 264.062 110.938 261.791 110.938 258.984C110.938 256.178 108.457 253.906 105.391 253.906Z" fill="#8D6C9F"/>
<path d="M249.609 172.656H238.516C235.45 172.656 232.969 174.928 232.969 177.734C232.969 180.541 235.45 182.812 238.516 182.812H249.609C252.675 182.812 255.156 180.541 255.156 177.734C255.156 174.928 252.675 172.656 249.609 172.656Z" fill="#8D6C9F"/>
<path d="M271.797 182.812H282.891C285.957 182.812 288.438 180.541 288.438 177.734C288.438 174.928 285.957 172.656 282.891 172.656H271.797C268.731 172.656 266.25 174.928 266.25 177.734C266.25 180.541 268.731 182.812 271.797 182.812Z" fill="#8D6C9F"/>
<path d="M249.609 192.969H238.516C235.45 192.969 232.969 195.24 232.969 198.047C232.969 200.854 235.45 203.125 238.516 203.125H249.609C252.675 203.125 255.156 200.854 255.156 198.047C255.156 195.24 252.675 192.969 249.609 192.969Z" fill="#8D6C9F"/>
<path d="M271.797 203.125H282.891C285.957 203.125 288.438 200.854 288.438 198.047C288.438 195.24 285.957 192.969 282.891 192.969H271.797C268.731 192.969 266.25 195.24 266.25 198.047C266.25 200.854 268.731 203.125 271.797 203.125Z" fill="#8D6C9F"/>
<path d="M249.609 274.219H238.516C235.45 274.219 232.969 276.49 232.969 279.297C232.969 282.104 235.45 284.375 238.516 284.375H249.609C252.675 284.375 255.156 282.104 255.156 279.297C255.156 276.49 252.675 274.219 249.609 274.219Z" fill="#8D6C9F"/>
<path d="M249.609 253.906H238.516C235.45 253.906 232.969 256.178 232.969 258.984C232.969 261.791 235.45 264.062 238.516 264.062H249.609C252.675 264.062 255.156 261.791 255.156 258.984C255.156 256.178 252.675 253.906 249.609 253.906Z" fill="#8D6C9F"/>
<path d="M282.891 274.219H271.797C268.731 274.219 266.25 276.49 266.25 279.297C266.25 282.104 268.731 284.375 271.797 284.375H282.891C285.957 284.375 288.438 282.104 288.438 279.297C288.438 276.49 285.957 274.219 282.891 274.219Z" fill="#8D6C9F"/>
<path d="M282.891 253.906H271.797C268.731 253.906 266.25 256.178 266.25 258.984C266.25 261.791 268.731 264.062 271.797 264.062H282.891C285.957 264.062 288.438 261.791 288.438 258.984C288.438 256.178 285.957 253.906 282.891 253.906Z" fill="#8D6C9F"/>
<path d="M338.359 304.688H321.719V141.275C328.728 138.944 333.181 132.626 332.628 125.822C332.076 119.019 326.637 113.375 319.335 112.026L300.257 85.7727C298.188 82.9361 294.71 81.2401 290.994 81.25H232.969V55.8594C232.969 47.4487 225.515 40.625 216.328 40.625H127.578C118.391 40.625 110.938 47.4487 110.938 55.8594V81.25H88.75V71.4012C88.75 68.5944 86.2691 66.3231 83.2031 66.3231C80.1372 66.3231 77.6563 68.5944 77.6563 71.4012V81.25H66.5625V46.0106C66.5625 43.2037 64.0816 40.9325 61.0156 40.9325C57.9497 40.9325 55.4688 43.2037 55.4688 46.0106V81.25H52.912C49.2177 81.2599 45.7617 82.9559 43.7141 85.7727L24.5709 112.026C17.269 113.375 11.8304 119.019 11.2779 125.822C10.7254 132.626 15.1781 138.944 22.1875 141.275V304.688H5.54688C2.48093 304.688 0 306.959 0 309.766C0 312.572 2.48093 314.844 5.54688 314.844H338.359C341.425 314.844 343.906 312.572 343.906 309.766C343.906 306.959 341.425 304.688 338.359 304.688ZM316.172 132.031H232.969V121.875H316.172C319.238 121.875 321.719 124.146 321.719 126.953C321.719 129.76 319.238 132.031 316.172 132.031ZM290.994 91.4062L305.804 111.719H232.969V91.4062H290.994ZM122.031 55.8594C122.031 53.0525 124.512 50.7812 127.578 50.7812H216.328C219.394 50.7812 221.875 53.0525 221.875 55.8594V137.109C221.875 139.916 219.394 142.188 216.328 142.188H127.578C124.512 142.188 122.031 139.916 122.031 137.109V55.8594ZM27.7344 132.031C24.6684 132.031 22.1875 129.76 22.1875 126.953C22.1875 124.146 24.6684 121.875 27.7344 121.875H110.938V132.031H27.7344ZM52.912 91.4062H55.4688V96.7918C55.4688 99.5888 57.9497 101.87 61.0156 101.87C64.0816 101.87 66.5625 99.5888 66.5625 96.7918V91.4062H77.6563V96.7918C77.6563 99.5888 80.1372 101.87 83.2031 101.87C86.2691 101.87 88.75 99.5888 88.75 96.7918V91.4062H110.938V111.719H38.1023L52.912 91.4062ZM199.688 304.688H177.5V253.906H199.688V304.688ZM166.406 304.688H144.219V253.906H166.406V304.688ZM210.781 304.688V253.906C210.781 248.293 205.819 243.75 199.688 243.75H144.219C138.087 243.75 133.125 248.293 133.125 253.906V304.688H33.2813V233.594H255.156C258.222 233.594 260.703 231.322 260.703 228.516C260.703 225.709 258.222 223.438 255.156 223.438H33.2813V142.188H111.934C114.285 148.257 120.547 152.324 127.578 152.344H216.328C223.359 152.324 229.621 148.257 231.972 142.188H310.625V304.688H210.781Z" fill="#8D6C9F"/>
<path d="M293.984 223.438H271.797C268.731 223.438 266.25 225.709 266.25 228.516C266.25 231.322 268.731 233.594 271.797 233.594H293.984C297.05 233.594 299.531 231.322 299.531 228.516C299.531 225.709 297.05 223.438 293.984 223.438Z" fill="#8D6C9F"/>
<path d="M144.219 111.719H155.312V121.875C155.312 127.489 160.274 132.031 166.406 132.031H177.5C183.632 132.031 188.594 127.489 188.594 121.875V111.719H199.688C205.819 111.719 210.781 107.176 210.781 101.563V91.4063C210.781 85.7925 205.819 81.25 199.688 81.25H188.594V71.0938C188.594 65.48 183.632 60.9375 177.5 60.9375H166.406C160.274 60.9375 155.312 65.48 155.312 71.0938V81.25H144.219C138.087 81.25 133.125 85.7925 133.125 91.4063V101.563C133.125 107.176 138.087 111.719 144.219 111.719ZM144.219 91.4063H155.312C161.444 91.4063 166.406 86.8637 166.406 81.25V71.0938H177.5V81.25C177.5 86.8637 182.462 91.4063 188.594 91.4063H199.688V101.563H188.594C182.462 101.563 177.5 106.105 177.5 111.719V121.875H166.406V111.719C166.406 106.105 161.444 101.563 155.312 101.563H144.219V91.4063Z" fill="#8D6C9F"/>
</svg>
