<svg width="18" height="18" viewBox="0 0 18 18" fill="none" xmlns="http://www.w3.org/2000/svg">
<path d="M5.89288 1.07153C5.20663 1.07153 4.64273 1.63474 4.64273 2.32169V9.64263H4.46413C4.16882 9.64263 3.92835 9.8831 3.92835 10.1784C3.92835 10.4744 4.16882 10.7142 4.46413 10.7142H13.3931C13.6884 10.7142 13.9289 10.4744 13.9289 10.1784C13.9289 9.8831 13.6884 9.64263 13.3931 9.64263H13.2145V2.32169C13.2145 1.63474 12.6506 1.07153 11.9644 1.07153H5.89288ZM5.89288 1.78591H6.42866V9.99981H5.3571V2.32169C5.3571 2.02146 5.59265 1.78591 5.89288 1.78591ZM7.50023 1.78591H11.9644C12.2639 1.78591 12.5001 2.02146 12.5001 2.32169V9.99981H7.50023V1.78591ZM1.78593 3.92833C1.19812 3.92833 0.714368 4.41278 0.714368 4.99989V12.7455C0.693274 12.8151 0.693274 12.8875 0.714368 12.9579V13.5717C0.714368 14.1588 1.19812 14.6425 1.78593 14.6425H6.71905L6.48421 16.0713H5.71429C5.70304 16.0713 5.69179 16.0713 5.68054 16.0713C5.48437 16.0811 5.33038 16.2485 5.34023 16.4454C5.35007 16.6422 5.51741 16.7955 5.71429 16.7857H12.143C12.2709 16.7871 12.3912 16.7203 12.4566 16.6085C12.5212 16.4967 12.5212 16.3603 12.4566 16.2485C12.3912 16.1367 12.2709 16.0699 12.143 16.0713H11.373L11.1382 14.6425H16.0713C16.6584 14.6425 17.1429 14.1588 17.1429 13.5717V12.9241C17.1527 12.8763 17.1527 12.8264 17.1429 12.7793V4.99989C17.1429 4.41278 16.6584 3.92833 16.0713 3.92833H13.5717V4.6427H16.0713C16.2738 4.6427 16.4285 4.79739 16.4285 4.99989V12.5001H1.42874V4.99989C1.42874 4.79739 1.58343 4.6427 1.78593 4.6427H4.28554V3.92833H1.78593ZM1.42874 13.2145H16.4285V13.5717C16.4285 13.7735 16.2738 13.9289 16.0713 13.9289H1.78593C1.58343 13.9289 1.42874 13.7735 1.42874 13.5717V13.2145ZM7.45523 14.6425H10.402L10.6474 16.0713H7.20984L7.45523 14.6425Z" fill="#889DFC"/>
</svg>
