<svg width="56" height="56" viewBox="0 0 56 56" fill="none" xmlns="http://www.w3.org/2000/svg">
<path fill-rule="evenodd" clip-rule="evenodd" d="M50.2352 30.2211V20.3183C50.2352 18.0428 48.3879 16.192 46.1176 16.192H9.88227C7.61193 16.192 5.76462 18.0428 5.76462 20.3183V30.2215H12.6617C13.7989 30.2215 14.7205 31.1451 14.7205 32.2846C14.7205 33.4242 13.7989 34.3478 12.6617 34.3478H5.76462V44.3541C5.76462 46.6292 7.61193 48.4804 9.88227 48.4804H46.1176C48.3879 48.4804 50.2352 46.6292 50.2352 44.3541V42.6004C50.2352 41.4609 51.1568 40.5373 52.294 40.5373C53.4312 40.5373 54.3529 41.4609 54.3529 42.6004V44.3541C54.3529 48.9043 50.6586 52.6067 46.1176 52.6067H9.88227C5.34119 52.6067 1.64697 48.9043 1.64697 44.3541V20.3183C1.64697 15.7677 5.34119 12.0657 9.88227 12.0657H18.7428V9.37593C18.7428 6.24936 21.281 3.70587 24.4006 3.70587H31.5992C34.7188 3.70587 37.257 6.24936 37.257 9.37593V12.0653H46.1176C50.6586 12.0653 54.3529 15.7677 54.3529 20.3179V32.2842C54.3529 33.4238 53.4312 34.3474 52.294 34.3474C52.1529 34.3474 52.0154 34.3333 51.8823 34.3063C51.7492 34.3333 51.6116 34.3474 51.4705 34.3474H43.544C42.4068 34.3474 41.4852 33.4238 41.4852 32.2842C41.4852 31.1451 42.4068 30.2211 43.544 30.2211H50.2352ZM26.044 39.5057V34.3478H20.897C19.7598 34.3478 18.8381 33.4242 18.8381 32.2847C18.8381 31.1451 19.7598 30.2215 20.897 30.2215H26.044V25.0636C26.044 23.924 26.9657 23.0005 28.1029 23.0005C29.24 23.0005 30.1617 23.924 30.1617 25.0636V30.2215H35.3087C36.4459 30.2215 37.3676 31.1451 37.3676 32.2847C37.3676 33.4242 36.4459 34.3478 35.3087 34.3478H30.1617V39.5057C30.1617 40.6453 29.24 41.5689 28.1029 41.5689C26.9657 41.5689 26.044 40.6449 26.044 39.5057ZM33.1393 12.0657H22.8605V9.37596C22.8605 8.52451 23.5513 7.83222 24.4006 7.83222H31.5992C32.4485 7.83222 33.1393 8.52491 33.1393 9.37596V12.0657Z" fill="#10ABFE"/>
</svg>
