<svg width="80" height="80" viewBox="0 0 80 80" fill="none" xmlns="http://www.w3.org/2000/svg">
<path d="M21.4843 29.9968H24.9877C25.7742 31.0857 26.8079 31.9724 28.0039 32.5839C29.2 33.1954 30.5241 33.5143 31.8674 33.5143C33.2107 33.5143 34.5349 33.1954 35.7309 32.5839C36.9269 31.9724 37.9606 31.0857 38.7471 29.9968H42.2869C42.6084 29.9968 42.9168 29.8691 43.1441 29.6418C43.3715 29.4145 43.4992 29.1062 43.4992 28.7847V22.5786C43.5011 19.6304 42.3731 16.7936 40.3473 14.6514V10.9059C40.3822 9.74807 40.0357 8.61081 39.3611 7.66908C38.6865 6.72736 37.7211 6.03334 36.6135 5.6938L34.8193 5.22107C32.8909 4.72432 30.8681 4.72432 28.9398 5.22107L27.1335 5.6938C26.0121 6.03341 25.0349 6.73515 24.3549 7.68922C23.6749 8.64329 23.3305 9.79584 23.3754 10.9665V14.6999C21.3849 16.8413 20.2765 19.6552 20.272 22.5786V28.7847C20.272 29.1062 20.3997 29.4145 20.627 29.6418C20.8544 29.8691 21.1627 29.9968 21.4843 29.9968ZM31.8735 31.1241C30.9014 31.1183 29.9446 30.8811 29.0824 30.4321C28.2202 29.9831 27.4773 29.3353 26.9153 28.5423C26.8967 28.4131 26.8513 28.2892 26.7819 28.1786C26.599 27.8533 26.4448 27.5126 26.3212 27.1605C26.624 27.1786 26.9276 27.1786 27.2304 27.1605H27.3274C29.269 27.0936 31.1423 26.4273 32.69 25.2532C34.2376 24.079 35.3838 22.4545 35.971 20.6029C36.5856 21.1697 37.0762 21.8575 37.4121 22.6231C37.748 23.3886 37.9218 24.2154 37.9227 25.0514C37.9227 25.8473 37.7659 26.6354 37.4613 27.3707C37.1567 28.106 36.7102 28.7741 36.1474 29.3369C35.5845 29.8996 34.9163 30.3461 34.1809 30.6506C33.4455 30.9552 32.6573 31.112 31.8613 31.112L31.8735 31.1241ZM25.8121 10.9665C25.7776 10.3357 25.9478 9.71059 26.2973 9.18425C26.6468 8.6579 27.1569 8.25845 27.7517 8.04531L29.5701 7.57258C30.3253 7.37017 31.1038 7.26828 31.8856 7.26955C32.6675 7.26641 33.4463 7.36833 34.201 7.57258L35.9952 8.04531C36.5807 8.25257 37.0841 8.64247 37.4312 9.15752C37.7782 9.67257 37.9505 10.2855 37.9227 10.9059V12.6756C37.8094 12.5969 37.692 12.524 37.5712 12.4574L37.0741 12.1908C36.8412 12.0701 36.6025 11.9609 36.3589 11.8635L35.8619 11.6574L35.0011 11.3908L34.5768 11.2696C34.1369 11.1683 33.6917 11.0914 33.2433 11.0393C32.8089 10.9878 32.3716 10.9635 31.9341 10.9665C31.3744 10.9703 30.8155 11.0108 30.2611 11.0877L29.7156 11.2089C29.3478 11.2751 28.9836 11.36 28.6246 11.4635C28.4185 11.4635 28.2124 11.6089 28.0063 11.6817C27.8002 11.7544 27.3759 11.912 27.0607 12.0574C26.7455 12.2029 26.6486 12.2756 26.4425 12.3847L25.8606 12.6877L25.8121 10.9665ZM22.7087 22.5786C22.7084 21.0944 23.0677 19.6321 23.756 18.317C24.4442 17.0019 25.4409 15.8731 26.6607 15.0271C28.4695 13.7355 30.6987 13.1729 32.9039 13.4514C34.9704 13.7004 36.8967 14.6251 38.3834 16.0817C39.2394 16.9329 39.918 17.9454 40.3799 19.0606C40.8419 20.1758 41.078 21.3716 41.0747 22.5786V27.5726H40.0927C40.6934 25.6348 40.5798 23.5459 39.7725 21.6846C38.9652 19.8233 37.5176 18.3129 35.6921 17.4271C35.5095 17.3442 35.3108 17.3029 35.1102 17.3059H34.9527C34.7747 17.3185 34.6013 17.3681 34.4435 17.4514C34.2759 17.5498 34.1345 17.6871 34.0311 17.8516C33.9277 18.0162 33.8654 18.2032 33.8495 18.3968C33.8019 18.8059 33.725 19.211 33.6191 19.6089C33.2167 21.0158 32.3845 22.2616 31.239 23.1722C30.0935 24.0829 28.692 24.6127 27.2304 24.6877H26.5152C26.0349 24.6522 25.5595 24.5669 25.0968 24.4332C24.9768 24.4097 24.8532 24.4097 24.7332 24.4332C24.6365 24.4215 24.5388 24.4215 24.4422 24.4332H24.2967C24.1264 24.477 23.9686 24.56 23.8361 24.6756C23.6938 24.7996 23.5824 24.9552 23.5108 25.1298C23.4393 25.3045 23.4095 25.4935 23.4239 25.6817C23.4239 25.9968 23.4966 26.312 23.5451 26.615L23.6179 26.8938C23.6179 27.0999 23.7148 27.3059 23.7755 27.512H22.6965L22.7087 22.5786Z" fill="#10ABFE"/>
<path d="M33.6312 67.3785H36.4558V70.227C36.4558 70.5485 36.5835 70.8568 36.8109 71.0841C37.0382 71.3114 37.3466 71.4391 37.6681 71.4391H42.3111C42.6326 71.4391 42.941 71.3114 43.1683 71.0841C43.3957 70.8568 43.5234 70.5485 43.5234 70.227V67.3785H46.3601C46.6816 67.3785 46.99 67.2508 47.2173 67.0235C47.4447 66.7962 47.5724 66.4879 47.5724 66.1664V61.5482C47.5724 61.2267 47.4447 60.9184 47.2173 60.6911C46.99 60.4638 46.6816 60.3361 46.3601 60.3361H43.5234V57.4997C43.5234 57.1782 43.3957 56.8699 43.1683 56.6426C42.941 56.4153 42.6326 56.2876 42.3111 56.2876H37.6681C37.3466 56.2876 37.0382 56.4153 36.8109 56.6426C36.5835 56.8699 36.4558 57.1782 36.4558 57.4997V60.3361H33.6312C33.3097 60.3361 33.0014 60.4638 32.774 60.6911C32.5467 60.9184 32.4189 61.2267 32.4189 61.5482V66.1664C32.4189 66.4879 32.5467 66.7962 32.774 67.0235C33.0014 67.2508 33.3097 67.3785 33.6312 67.3785ZM34.8435 62.7603H37.6681C37.9896 62.7603 38.298 62.6326 38.5253 62.4053C38.7527 62.178 38.8804 61.8697 38.8804 61.5482V58.7118H41.0988V61.5482C41.0988 61.8697 41.2266 62.178 41.4539 62.4053C41.6813 62.6326 41.9896 62.7603 42.3111 62.7603H45.1479V64.9543H42.3111C41.9896 64.9543 41.6813 65.082 41.4539 65.3093C41.2266 65.5366 41.0988 65.8449 41.0988 66.1664V69.0149H38.8804V66.1664C38.8804 65.8449 38.7527 65.5366 38.5253 65.3093C38.298 65.082 37.9896 64.9543 37.6681 64.9543H34.8435V62.7603Z" fill="#10ABFE"/>
<path d="M75.1517 51.0391C75.1485 49.9889 74.7298 48.9826 73.9871 48.24C73.2443 47.4973 72.2379 47.0787 71.1875 47.0755H69.9752V40.7967C69.9752 40.4752 69.8475 40.1669 69.6202 39.9396C69.3928 39.7123 69.0845 39.5846 68.763 39.5846H50.1787C49.8572 39.5846 49.5489 39.7123 49.3215 39.9396C49.0942 40.1669 48.9665 40.4752 48.9665 40.7967V47.0755H45.9236C45.6931 43.5756 44.1412 40.2941 41.5821 37.8951C39.023 35.4962 35.648 34.159 32.1401 34.1543H31.5703C28.0624 34.159 24.6873 35.4962 22.1282 37.8951C19.5692 40.2941 18.0173 43.5756 17.7867 47.0755H8.80372C7.90505 47.0748 7.03298 47.3804 6.33133 47.9418C5.62968 48.5033 5.14036 49.287 4.94407 50.1639C4.74777 51.0408 4.85623 51.9583 5.25155 52.7653C5.64687 53.5722 6.30544 54.2204 7.11865 54.6028V73.9361C7.11865 74.2576 7.24637 74.5659 7.47372 74.7932C7.70107 75.0205 8.00941 75.1482 8.33093 75.1482H71.6724C71.9939 75.1482 72.3023 75.0205 72.5296 74.7932C72.757 74.5659 72.8847 74.2576 72.8847 73.9361V54.5422C73.5518 54.2279 74.1177 53.7333 74.5183 53.1142C74.9189 52.4952 75.1383 51.7764 75.1517 51.0391ZM31.5703 36.5785H32.1401C35.003 36.5783 37.7611 37.6556 39.8658 39.5961C41.9705 41.5366 43.2676 44.1981 43.4991 47.0513H20.2112C20.4427 44.1981 21.7398 41.5366 23.8445 39.5961C25.9492 37.6556 28.7074 36.5783 31.5703 36.5785ZM51.391 42.0088H67.5264V43.3301H51.391V42.0088ZM51.391 45.7543H67.5264V47.0755H51.391V45.7543ZM8.80372 49.4998H71.1875C71.5958 49.4998 71.9874 49.6619 72.2762 49.9506C72.5649 50.2393 72.7271 50.6309 72.7271 51.0391C72.7271 51.4474 72.5649 51.839 72.2762 52.1277C71.9874 52.4164 71.5958 52.5785 71.1875 52.5785H8.80372C8.39539 52.5785 8.00379 52.4164 7.71506 52.1277C7.42633 51.839 7.26413 51.4474 7.26413 51.0391C7.26413 50.6309 7.42633 50.2393 7.71506 49.9506C8.00379 49.6619 8.39539 49.4998 8.80372 49.4998ZM70.4601 72.724H9.54321V55.0028H70.4601V72.724Z" fill="#10ABFE"/>
</svg>
